<?xml version="1.0" encoding="iso-8859-1"?>
<!-- Generator: Adobe Illustrator 19.0.0, SVG Export Plug-In . SVG Version: 6.00 Build 0)  -->
<svg version="1.1" id="Layer_1" xmlns="http://www.w3.org/2000/svg" xmlns:xlink="http://www.w3.org/1999/xlink" x="0px" y="0px"
	 viewBox="0 0 193.348 193.348" style="enable-background:new 0 0 193.348 193.348;" xml:space="preserve">
<g>

	<g>
		<path d="M130.036,160.687c-0.181,0-0.359-0.049-0.515-0.143L97.73,141.468c-0.307-0.185-0.493-0.52-0.485-0.878l1.697-83.503
			c0.004-0.195,0.065-0.385,0.176-0.546l16.105-23.446c0.286-0.416,0.836-0.555,1.285-0.321l52.996,27.492
			c0.219,0.114,0.389,0.305,0.476,0.536l23.304,62.078c0.112,0.299,0.075,0.633-0.1,0.899l-21.925,33.486
			c-0.17,0.261-0.453,0.427-0.763,0.449l-40.386,2.969C130.085,160.686,130.061,160.687,130.036,160.687z M99.257,140.051
			l31.021,18.615l39.578-2.909l21.376-32.648l-22.991-61.244L116.37,34.957l-15.435,22.471L99.257,140.051z"/>
		<path d="M151.855,130.167c-0.318,0-0.631-0.151-0.825-0.434l-35.807-52.136c-0.115-0.167-0.176-0.364-0.176-0.566v-43.37
			c0-0.428,0.272-0.808,0.677-0.946c0.406-0.137,0.853-0.003,1.114,0.334l31.641,40.929l20-13.652
			c0.458-0.312,1.079-0.194,1.39,0.262s0.194,1.079-0.262,1.39l-20.779,14.183c-0.437,0.298-1.031,0.205-1.355-0.214L117.047,36.59
			v40.131l35.631,51.879c0.313,0.455,0.197,1.078-0.258,1.391C152.247,130.11,152.05,130.167,151.855,130.167z"/>
		<path d="M170.421,157.718c-0.529,0-0.971-0.415-0.998-0.95l-1.379-27.551c-0.024-0.476,0.291-0.901,0.752-1.019l23.304-5.936
			c0.535-0.142,1.08,0.187,1.216,0.722s-0.187,1.08-0.723,1.216l-22.511,5.734l1.338,26.733c0.028,0.552-0.397,1.021-0.949,1.049
			C170.456,157.718,170.439,157.718,170.421,157.718z"/>
		<path d="M153.772,158.94c-0.522,0-0.961-0.405-0.997-0.934l-5.509-82.604c-0.037-0.551,0.38-1.027,0.931-1.064
			c0.538-0.051,1.027,0.38,1.064,0.931l5.509,82.604c0.037,0.551-0.38,1.027-0.931,1.064
			C153.817,158.939,153.795,158.94,153.772,158.94z"/>
		<path d="M169.043,130.167c-0.254,0-0.509-0.097-0.704-0.29l-18.404-18.24c-0.392-0.389-0.395-1.021-0.006-1.414
			c0.389-0.394,1.021-0.396,1.415-0.006l18.404,18.24c0.392,0.389,0.395,1.021,0.006,1.414
			C169.558,130.068,169.301,130.167,169.043,130.167z"/>
		<path d="M130.035,160.687c-0.479,0-0.902-0.345-0.985-0.833l-13.945-82.397l-15.94-19.721c-0.347-0.429-0.28-1.059,0.149-1.406
			c0.429-0.346,1.059-0.281,1.406,0.149l16.105,19.924c0.108,0.133,0.18,0.292,0.208,0.461l13.989,82.655
			c0.092,0.545-0.274,1.061-0.819,1.153C130.147,160.682,130.09,160.687,130.035,160.687z"/>
		<path d="M111.468,149.544c-0.147,0-0.297-0.032-0.439-0.102c-0.496-0.243-0.701-0.843-0.458-1.338l12.074-24.65l-24.257-22.795
			c-0.403-0.378-0.422-1.011-0.044-1.413c0.379-0.403,1.012-0.422,1.413-0.044l24.795,23.301c0.32,0.301,0.407,0.774,0.213,1.168
			l-12.398,25.313C112.193,149.338,111.838,149.544,111.468,149.544z"/>
	</g>
</g>
<g>
</g>
<g>
</g>
<g>
</g>
<g>
</g>
<g>
</g>
<g>
</g>
<g>
</g>
<g>
</g>
<g>
</g>
<g>
</g>
<g>
</g>
<g>
</g>
<g>
</g>
<g>
</g>
<g>
</g>
</svg>
